PathFileType	4	(X/Y/Z)	C:/Users/opensim2020/Desktop/walking_exp_matlab/subject02_walking13_straight_02.trc	
DataRate	CameraRate	NumFrames	NumMarkers	Units	OrigDataRate	OrigDataStartFrame	OrigNumFrames	
100.00	100.00	4	41	mm	100.00	944	125	
Frame#	Time	LFHD			RFHD			LBHD			RBHD			C7			T10			CLAV			STRN			RBAK			LSHO			LUPA			LELB			LFRM			LWRA			LWRB			LFIN			RSHO			RUPA			RELB			RFRM			RWRA			RWRB			RFIN			LASI			RASI			LPSI			RPSI			LTHI			LKNE			LTIB			LANK			LHEE			LTOE			RTHI			RKNE			RTIB			RANK			RHEE			RTOE			*39			*40			
		X1	Y1	Z1	X2	Y2	Z2	X3	Y3	Z3	X4	Y4	Z4	X5	Y5	Z5	X6	Y6	Z6	X7	Y7	Z7	X8	Y8	Z8	X9	Y9	Z9	X10	Y10	Z10	X11	Y11	Z11	X12	Y12	Z12	X13	Y13	Z13	X14	Y14	Z14	X15	Y15	Z15	X16	Y16	Z16	X17	Y17	Z17	X18	Y18	Z18	X19	Y19	Z19	X20	Y20	Z20	X21	Y21	Z21	X22	Y22	Z22	X23	Y23	Z23	X24	Y24	Z24	X25	Y25	Z25	X26	Y26	Z26	X27	Y27	Z27	X28	Y28	Z28	X29	Y29	Z29	X30	Y30	Z30	X31	Y31	Z31	X32	Y32	Z32	X33	Y33	Z33	X34	Y34	Z34	X35	Y35	Z35	X36	Y36	Z36	X37	Y37	Z37	X38	Y38	Z38	X39	Y39	Z39	X40	Y40	Z40	X41	Y41	Z41	

79	0.780	1484.30127	-65.86422	1698.08704	1344.43799	-40.09730	1671.93994	1517.70386	71.28470	1645.35608	1380.51208	108.42456	1619.90247	1454.02380	153.93011	1496.00574	1459.82336	194.01224	1213.46143	1464.95740	12.58174	1429.35266	1453.55310	-46.63256	1262.54175	1394.58411	207.67236	1314.21570	1632.65442	85.12011	1472.04395	1707.67932	157.86099	1285.03271	1706.76758	205.31636	1154.59631	1724.51294	258.48804	1037.83142	1690.27783	280.94125	897.51312	1732.12878	310.20602	923.94922	1718.99731	346.52499	863.37738	1270.74536	87.11277	1461.76953	1170.66589	86.66541	1280.40698	1129.42395	29.36466	1146.45605	1129.12573	-70.76589	1074.25635	1168.98120	-185.82524	1018.95837	1134.70239	-160.47812	981.29108	1139.17590	-230.59679	969.46558	1573.20959	-60.62752	967.40961	1319.51086	-16.12065	938.38995	1529.96179	162.02733	1003.26239	1419.58215	182.90892	999.34546	1658.61475	-78.77399	671.82684	1633.53076	-103.57260	470.91052	1636.73828	-107.83063	275.31638	1619.28259	-184.21225	66.57827	1567.85693	-157.16034	35.59401	1622.67993	-343.37079	58.13147	1282.42664	152.07396	653.62079	1323.91516	215.14052	454.35034	1333.38745	341.99805	312.40005	1377.38281	445.25412	150.06723	1438.86841	492.54279	117.37059	1361.37305	330.43469	36.72427	1405.26550	38.49781	1773.93945	-3357.37646	2845.83228	1034.25415 
80	0.790	1484.66858	-79.53078	1697.85266	1345.19592	-53.10785	1671.41956	1518.71912	57.45085	1645.35852	1382.00891	95.32382	1619.57336	1456.24353	141.36253	1495.26013	1462.40051	179.38580	1212.83362	1466.77112	-0.69102	1429.41235	1455.67590	-60.69440	1263.27612	1397.38171	194.02576	1313.05652	1634.64417	71.63087	1472.06897	1710.25293	143.35548	1284.77588	1709.33081	190.11635	1153.84924	1727.27100	242.66454	1036.84778	1693.49304	264.89926	896.96423	1735.42590	294.18732	923.00970	1721.97485	331.06418	862.73596	1272.42737	74.62239	1460.76563	1173.33728	75.40184	1278.48669	1131.23792	18.49408	1144.99207	1130.74646	-81.69935	1072.87573	1169.86572	-197.60509	1018.22260	1136.05627	-172.08261	980.47504	1139.81860	-242.56935	969.19629	1576.93384	-76.47581	968.46008	1323.07117	-34.11253	937.88837	1532.56238	145.59756	1002.97247	1422.13818	166.60115	997.94519	1660.50574	-94.45700	673.52985	1636.76282	-117.43420	472.20056	1637.61292	-120.14650	277.38745	1623.01733	-191.24066	65.59473	1571.78955	-160.47766	37.30655	1620.64917	-349.87634	49.50880	1283.13013	135.00980	653.28723	1321.60400	197.94394	454.46588	1332.05725	329.39044	316.63507	1375.42993	437.62167	158.00372	1437.67871	484.77167	128.10504	1360.91626	329.69498	36.65479	1406.03455	25.22309	1773.52161	-3360.34619	2845.09717	1034.38379 
81	0.800	1485.53149	-92.96113	1698.42017	1345.94800	-66.08897	1671.24805	1519.95850	43.94372	1646.05371	1383.47241	82.27370	1619.81506	1458.47424	128.43208	1495.34961	1464.40149	164.78758	1212.22949	1468.55505	-13.74332	1430.09497	1457.86658	-74.73672	1264.30554	1399.96411	180.38603	1312.06323	1636.61707	58.33798	1472.39941	1712.96643	128.51582	1284.66467	1712.61584	174.75504	1153.59265	1730.63440	226.24757	1035.99451	1697.09741	247.06808	896.26550	1738.97205	277.05078	921.81598	1725.29871	314.06244	861.59967	1273.89282	62.57100	1460.10278	1175.27124	63.30777	1277.24438	1133.53369	7.70466	1143.40039	1132.47632	-92.57924	1071.50684	1170.95276	-208.46181	1017.15302	1137.52222	-183.12401	979.27252	1140.69312	-253.36470	968.26105	1580.77051	-92.07519	969.71503	1327.05322	-51.86207	937.58398	1535.03162	129.45724	1003.62280	1424.34387	150.58853	997.30151	1663.15723	-109.37078	674.95856	1639.63232	-133.64554	474.78970	1644.69788	-132.70122	280.31259	1624.57764	-196.20541	65.21661	1573.97021	-162.20274	37.94457	1620.38159	-353.65109	43.46009	1284.16821	116.88457	653.13324	1318.86316	178.96460	454.41888	1330.48682	314.91840	321.13461	1374.22546	428.31647	166.54628	1437.17981	474.78793	139.37068	1360.68726	328.66226	36.68161	1406.70068	11.88687	1773.64380			 
82	0.810	1486.00952	-106.39942	1698.77637	1346.65869	-79.07990	1671.26428	1521.50122	30.63580	1647.13159	1384.88757	69.24605	1620.31909	1460.47449	115.29257	1496.02405	1466.14941	150.40927	1212.14807	1470.23389	-26.80133	1431.09863	1459.76990	-88.75263	1265.47620	1402.85999	167.15640	1311.68115	1638.53674	45.13778	1473.10986	1715.45276	113.17415	1284.58862	1715.81567	158.71014	1153.21973	1734.37793	209.22945	1035.26941	1701.35852	227.68201	895.06110	1742.78345	258.72128	920.46698	1729.04333	295.49084	860.09808	1274.84534	50.13204	1459.62598	1177.96204	51.91638	1276.29346	1136.06909	-2.98300	1141.99707	1134.32361	-103.36206	1069.98303	1171.93860	-219.29915	1015.51953	1139.05493	-193.49524	977.67389	1141.45642	-264.15961	966.80005	1584.56213	-107.52286	971.23407	1331.43311	-69.16135	937.55713	1537.21179	113.77784	1005.24158	1425.97852	134.46983	997.69293	1666.94824	-122.62148	676.81268	1640.54236	-150.74654	477.34180	1651.42517	-146.48291	283.58502	1623.82043	-197.49480	66.52362	1573.65845	-163.30553	38.71870	1621.86340	-354.88681	40.15104	1285.29370	97.95103	652.77643	1315.97668	158.29131	453.81470	1328.60681	298.33163	325.50104	1372.93359	416.47028	175.04977	1437.02112	462.27740	151.08607	1360.87305	326.68768	36.81968	1407.37976	-1.49743	1774.19006	-3356.86963	2846.05859	1034.23828 
